<svg width="593" height="612" viewBox="0 0 593 612" fill="none" xmlns="http://www.w3.org/2000/svg">
<rect width="593" height="612" fill="white"/>
<path d="M538 164C538 122.579 504.421 89 463 89C421.579 89 388 122.579 388 164C388 205.421 421.579 239 463 239C504.421 239 538 205.421 538 164Z" fill="#EED1C6"/>
<path d="M333 0L592.808 600H73.1924L333 0Z" fill="#D7D5D5"/>
<path d="M72.4625 543.433H116.875V599.9H72.4625V543.433Z" fill="#A5946A"/>
<path d="M94.6688 483.942L145.277 559.567H44.0604L94.6688 483.942Z" fill="#94AF8E"/>
<path d="M94.6688 445.625L140.216 513.687H49.1213L94.6688 445.625Z" fill="#94AF8E"/>
<path d="M94.6687 405.292L135.155 465.792H54.1821L94.6687 405.292Z" fill="#94AF8E"/>
</svg>
