<svg width="622" height="660" viewBox="0 0 622 660" fill="none" xmlns="http://www.w3.org/2000/svg">
<rect width="622" height="660" fill="white"/>
<path d="M519 164C519 122.579 485.421 89 444 89C402.579 89 369 122.579 369 164C369 205.421 402.579 239 444 239C485.421 239 519 205.421 519 164Z" fill="#EED1C6"/>
<path d="M314 0L573.808 600H54.1924L314 0Z" fill="#DCD7D7"/>
<path d="M62 592H100V648H62V592Z" fill="#A5946A"/>
<path d="M81 533L124.301 608H37.6987L81 533Z" fill="#94AF8E"/>
<path d="M81 495L119.971 562.5H42.0289L81 495Z" fill="#94AF8E"/>
<path d="M81 455L115.641 515H46.359L81 455Z" fill="#94AF8E"/>
<rect width="38" height="56" transform="matrix(-1 0 0 1 562 592)" fill="#A5946A"/>
<path d="M543 533L586.301 608H499.699L543 533Z" fill="#94AF8E"/>
<path d="M543 495L581.971 562.5H504.029L543 495Z" fill="#94AF8E"/>
<path d="M543 455L577.641 515H508.359L543 455Z" fill="#94AF8E"/>
</svg>
