<svg width="583" height="612" viewBox="0 0 583 612" fill="none" xmlns="http://www.w3.org/2000/svg">
<rect width="583" height="612" fill="white"/>
<path d="M465 164C465 122.579 431.421 89 390 89C348.579 89 315 122.579 315 164C315 205.421 348.579 239 390 239C431.421 239 465 205.421 465 164Z" fill="#EED1C6"/>
<path d="M260 0L519.808 600H0.192383L260 0Z" fill="#E2E2E2"/>
<rect width="33" height="56" transform="matrix(-1 0 0 1 521 543)" fill="#A5946A"/>
<path d="M504 485L547.301 560H460.699L504 485Z" fill="#94AF8E"/>
<path d="M504 447L542.971 514.5H465.029L504 447Z" fill="#94AF8E"/>
<path d="M504 407L538.641 467H469.359L504 407Z" fill="#94AF8E"/>
</svg>
